# xmcd
#
# Track frame offsets:
#	150
#	24626
#	46764
#	77569
#	100282
#	130117
#	163280
#	185385
#	208710
#	232380
#	250143
#	273205
#	306170
#	337095
#
# Disc length: 4816 seconds
#
# Revision: 1
# Processed by: cddbd v1.5.2PL0 Copyright (c) Steve Scherf et al.
# Submitted via: audiograbber 1.80.04
#
DISCID=c512ce0e
DTITLE=The Moody blues - VOICES in the SKY
DYEAR=1900
DGENRE=Blues
TTITLE0=22.000 Days
TTITLE1=Breaking point
TTITLE2=Deep
TTITLE3=Hope and pray
TTITLE4=I know you're out there somewhere
TTITLE5=In my world
TTITLE6=It may be a fire
TTITLE7=Magic
TTITLE8=No more lies
TTITLE9=Say it wizh love
TTITLE10=Shadows on the wall
TTITLE11=Talking out of turn
TTITLE12=The other side of live
TTITLE13=The Voice
EXTD=
EXTT0=
EXTT1=
EXTT2=
EXTT3=
EXTT4=
EXTT5=
EXTT6=
EXTT7=
EXTT8=
EXTT9=
EXTT10=
EXTT11=
EXTT12=
EXTT13=
PLAYORDER=
